<svg width="35" height="35" viewBox="0 0 35 35" fill="none" xmlns="http://www.w3.org/2000/svg">
<g id="Frame">
<g id="SVGRepo_iconCarrier">
<path id="Vector" d="M22.0126 30.9896C22.0181 30.1385 22.0234 27.1845 22.0234 26.0149C22.0234 24.3247 21.4461 23.2187 20.7986 22.6589C24.8183 22.2097 29.0383 20.6787 29.0383 13.7144C29.0383 11.7356 28.3412 10.1169 27.1835 8.85032C27.3689 8.39167 27.988 6.54797 27.0036 4.0524C27.0036 4.0524 25.4913 3.56532 22.0449 5.9125C20.6026 5.50909 19.0606 5.30948 17.527 5.30146C15.9932 5.30948 14.4514 5.50928 13.0089 5.9125C9.56247 3.56532 8.05036 4.0524 8.05036 4.0524C7.06599 6.54797 7.68505 8.39167 7.87044 8.85032C6.71271 10.1169 6.01562 11.7356 6.01562 13.7144C6.01562 20.6787 10.2355 22.2097 14.2552 22.6589C13.6079 23.2187 13.0304 24.3247 13.0304 26.0149C13.0304 27.1845 13.0359 30.1385 13.0411 30.9896M4.92188 23.698C6.73367 23.8261 7.77838 25.4726 7.77838 25.4726C9.38875 28.2432 12.0035 27.4419 13.0311 26.9792" stroke="white" stroke-linecap="round" stroke-linejoin="round"/>
</g>
</g>
</svg>
