<svg width="35" height="35" viewBox="0 0 35 35" fill="none" xmlns="http://www.w3.org/2000/svg">
<g id="Frame">
<g id="SVGRepo_iconCarrier">
<path id="Vector" d="M4.375 16.0417C4.375 10.5419 4.375 7.79209 6.08354 6.08354C7.79209 4.375 10.5419 4.375 16.0417 4.375H18.9583C24.458 4.375 27.208 4.375 28.9164 6.08354C30.625 7.79209 30.625 10.5419 30.625 16.0417V18.9583C30.625 24.458 30.625 27.208 28.9164 28.9164C27.208 30.625 24.458 30.625 18.9583 30.625H16.0417C10.5419 30.625 7.79209 30.625 6.08354 28.9164C4.375 27.208 4.375 24.458 4.375 18.9583V16.0417Z" stroke="white"/>
<path id="Vector_2" d="M24.0625 13.125C25.2706 13.125 26.25 12.1456 26.25 10.9375C26.25 9.72938 25.2706 8.75 24.0625 8.75C22.8544 8.75 21.875 9.72938 21.875 10.9375C21.875 12.1456 22.8544 13.125 24.0625 13.125Z" fill="white"/>
<path id="Vector_3" d="M17.5 22.6041C20.319 22.6041 22.6042 20.3189 22.6042 17.4999C22.6042 14.681 20.319 12.3958 17.5 12.3958C14.6811 12.3958 12.3958 14.681 12.3958 17.4999C12.3958 20.3189 14.6811 22.6041 17.5 22.6041Z" stroke="white"/>
</g>
</g>
</svg>
