<svg width="35" height="35" viewBox="0 0 35 35" fill="none" xmlns="http://www.w3.org/2000/svg">
<g id="Frame">
<g id="SVGRepo_iconCarrier">
<path id="Vector" d="M24.6525 25.4314L19.5945 30.4895C19.2066 30.8791 18.7455 31.1883 18.2378 31.3993C17.73 31.6102 17.1856 31.7189 16.6358 31.7189C16.0859 31.7189 15.5415 31.6102 15.0338 31.3993C14.526 31.1883 14.065 30.8791 13.677 30.4895L6.28008 23.0928C5.89044 22.7049 5.58126 22.2438 5.37029 21.736C5.15932 21.2283 5.05072 20.6839 5.05072 20.134C5.05072 19.5842 5.15932 19.0398 5.37029 18.532C5.58126 18.0243 5.89044 17.5632 6.28008 17.1752L13.677 9.77821C14.065 9.38857 14.526 9.07938 15.0338 8.86841C15.5415 8.65743 16.0859 8.54883 16.6358 8.54883C17.1856 8.54883 17.73 8.65743 18.2378 8.86841C18.7455 9.07938 19.2066 9.38857 19.5945 9.77821L25.1562 15.3398" stroke="white" stroke-linecap="round" stroke-linejoin="round"/>
<path id="Vector_2" d="M13.677 9.77813L20.2451 3.28125" stroke="white" stroke-linecap="round" stroke-linejoin="round"/>
<path id="Vector_3" d="M14.2798 20.1191H29.9496" stroke="white" stroke-linecap="round" stroke-linejoin="round"/>
</g>
</g>
</svg>
