<svg width="35" height="35" viewBox="0 0 35 35" fill="none" xmlns="http://www.w3.org/2000/svg">
<path d="M12.25 16.1001C12.25 15.5202 11.7799 15.0501 11.2 15.0501C10.6201 15.0501 10.15 15.5202 10.15 16.1001H12.25ZM10.15 24.5001C10.15 25.08 10.6201 25.5501 11.2 25.5501C11.7799 25.5501 12.25 25.08 12.25 24.5001H10.15ZM24.15 24.5001C24.15 25.08 24.6201 25.5501 25.2 25.5501C25.7799 25.5501 26.25 25.08 26.25 24.5001H24.15ZM15.75 24.5001C15.75 25.08 16.2201 25.5501 16.8 25.5501C17.3799 25.5501 17.85 25.08 17.85 24.5001H15.75ZM12.25 11.9001C12.25 11.3202 11.7799 10.8501 11.2 10.8501C10.6201 10.8501 10.15 11.3202 10.15 11.9001H12.25ZM10.15 13.3001C10.15 13.88 10.6201 14.3501 11.2 14.3501C11.7799 14.3501 12.25 13.88 12.25 13.3001H10.15ZM10.15 16.1001V24.5001H12.25V16.1001H10.15ZM26.25 24.5001V20.3001H24.15V24.5001H26.25ZM26.25 20.3001C26.25 17.4006 23.8995 15.0501 21 15.0501V17.1501C22.7396 17.1501 24.15 18.5605 24.15 20.3001H26.25ZM21 15.0501C18.1005 15.0501 15.75 17.4006 15.75 20.3001H17.85C17.85 18.5605 19.2604 17.1501 21 17.1501V15.0501ZM15.75 20.3001V24.5001H17.85V20.3001H15.75ZM10.15 11.9001V13.3001H12.25V11.9001H10.15Z" fill="white"/>
</svg>
