<svg width="35" height="35" viewBox="0 0 35 35" fill="none" xmlns="http://www.w3.org/2000/svg">
<g id="Layer_2">
<g id="SVGRepo_iconCarrier">
<path id="Vector" d="M28.9333 10.5949L17.5 19.0095L6.06666 10.5949M4.7177 7.80947C4.33093 7.80947 3.96 7.96312 3.68651 8.23661C3.41301 8.5101 3.25937 8.88103 3.25937 9.26781V25.7543C3.25937 26.141 3.41301 26.512 3.68651 26.7855C3.96 27.059 4.33093 27.2126 4.7177 27.2126H30.2823C30.6691 27.2126 31.04 27.059 31.3135 26.7855C31.587 26.512 31.7406 26.141 31.7406 25.7543V9.24593C31.7406 8.85916 31.587 8.48822 31.3135 8.21473C31.04 7.94124 30.6691 7.7876 30.2823 7.7876H4.7177V7.80947Z" stroke="white" stroke-linecap="round" stroke-linejoin="round"/>
</g>
</g>
</svg>
