<svg width="35" height="35" viewBox="0 0 35 35" fill="none" xmlns="http://www.w3.org/2000/svg">
<g id="Layer_2">
<g id="SVGRepo_iconCarrier">
<path id="Vector" d="M28.2479 12.0677V12.7969C28.2479 20.1396 22.6771 28.5542 12.4833 28.5542C9.47401 28.5607 6.52861 27.6862 4.01041 26.0386C4.44774 26.0979 4.88889 26.1248 5.3302 26.1188C7.82468 26.1256 10.249 25.2935 12.2135 23.7563C11.0546 23.7392 9.93063 23.3573 9.00123 22.6648C8.07183 21.9723 7.38433 21.0045 7.03645 19.899C7.38164 19.9722 7.73358 20.0088 8.08645 20.0084C8.57919 20.0085 9.06971 19.9422 9.54478 19.8115C8.28958 19.5613 7.16034 18.8826 6.3503 17.8917C5.54025 16.9007 5.09975 15.6591 5.10416 14.3792V14.3063C5.87212 14.7353 6.73309 14.9705 7.61249 14.9917C6.44188 14.2214 5.6096 13.0331 5.2857 11.6698C4.96179 10.3064 5.17072 8.87077 5.86978 7.65627C7.26268 9.36944 9.00052 10.7703 10.9703 11.7678C12.9402 12.7652 15.0978 13.337 17.3031 13.4459C17.1939 13.032 17.1424 12.6051 17.15 12.1771C17.1089 11.0461 17.4174 9.92992 18.0335 8.98055C18.6496 8.03118 19.5433 7.29476 20.593 6.87155C21.6426 6.44835 22.7972 6.35893 23.8995 6.61547C25.0018 6.87201 25.9982 7.46204 26.7531 8.30523C27.994 8.05481 29.1843 7.59888 30.275 6.95627C29.8614 8.26247 28.9815 9.37076 27.8031 10.0698C28.9039 9.91814 29.977 9.60871 30.9896 9.15106C30.2558 10.2781 29.3274 11.2657 28.2479 12.0677Z" stroke="white" stroke-linecap="round" stroke-linejoin="round"/>
</g>
</g>
</svg>
